<?xml version="1.0" encoding="UTF-8" standalone="no"?>
<!DOCTYPE svg PUBLIC "-//W3C//DTD SVG 1.1//EN"
 "http://www.w3.org/Graphics/SVG/1.1/DTD/svg11.dtd">
<!-- Generated by graphviz version 2.43.0 (0)
 -->
<!-- Title: dependency&#45;cruiser output Pages: 1 -->
<svg width="8pt" height="8pt"
 viewBox="0.00 0.00 8.00 8.00" xmlns="http://www.w3.org/2000/svg" xmlns:xlink="http://www.w3.org/1999/xlink">
<g id="graph0" class="graph" transform="scale(1 1) rotate(0) translate(4 4)">
<title>dependency&#45;cruiser output</title>
<polygon fill="white" stroke="transparent" points="-4,4 -4,-4 4,-4 4,4 -4,4"/>
<g id="clust1" class="cluster">
<title>cluster_clientJS</title>
<path fill="#ffffff" stroke="black" stroke-width="2" d="M-nan,nanC-nan,nan -nan,nan -nan,nan -nan,nan -nan,nan -nan,nan -nan,nan -nan,nan -nan,nan -nan,nan -nan,nan -nan,nan -nan,nan -nan,nan -nan,nan -nan,nan -nan,nan -nan,nan -nan,nan 
-nan,nan -nan,nan -nan,nan -nan,nan -nan,nan"/>
<text text-anchor="middle" x="0" y="2.2" font-family="Helvetica,sans-Serif" font-weight="bold" font-size="9.00">clientJS</text>
</g>
<g id="clust2" class="cluster">
<title>cluster_clientJS/mapGen</title>
<path fill="#ffffff" stroke="black" stroke-width="2" d="M-nan,nanC-nan,nan -nan,nan -nan,nan -nan,nan -nan,nan -nan,nan -nan,nan -nan,nan -nan,nan -nan,nan -nan,nan -nan,nan -nan,nan -nan,nan -nan,nan -nan,nan -nan,nan -nan,nan -nan,nan 
-nan,nan -nan,nan -nan,nan -nan,nan -nan,nan"/>
<text text-anchor="middle" x="0" y="2.2" font-family="Helvetica,sans-Serif" font-weight="bold" font-size="9.00">mapGen</text>
</g>
<g id="clust3" class="cluster">
<title>cluster_clientJS/socket.io</title>
<path fill="#ffffff" stroke="black" stroke-width="2" d="M-nan,nanC-nan,nan -nan,nan -nan,nan -nan,nan -nan,nan -nan,nan -nan,nan -nan,nan -nan,nan -nan,nan -nan,nan -nan,nan -nan,nan -nan,nan -nan,nan -nan,nan -nan,nan -nan,nan -nan,nan 
-nan,nan -nan,nan -nan,nan -nan,nan -nan,nan"/>
<text text-anchor="middle" x="0" y="2.2" font-family="Helvetica,sans-Serif" font-weight="bold" font-size="9.00">socket.io</text>
</g>
<g id="clust4" class="cluster">
<title>cluster_serverJS</title>
<path fill="#ffffff" stroke="black" stroke-width="2" d="M-nan,nanC-nan,nan -nan,nan -nan,nan -nan,nan -nan,nan -nan,nan -nan,nan -nan,nan -nan,nan -nan,nan -nan,nan -nan,nan -nan,nan -nan,nan -nan,nan -nan,nan -nan,nan -nan,nan -nan,nan 
-nan,nan -nan,nan -nan,nan -nan,nan -nan,nan"/>
<text text-anchor="middle" x="0" y="2.2" font-family="Helvetica,sans-Serif" font-weight="bold" font-size="9.00">serverJS</text>
</g>
<g id="clust5" class="cluster">
<title>cluster_sharedJS</title>
<path fill="#ffffff" stroke="black" stroke-width="2" d="M-nan,nanC-nan,nan -nan,nan -nan,nan -nan,nan -nan,nan -nan,nan -nan,nan -nan,nan -nan,nan -nan,nan -nan,nan -nan,nan -nan,nan -nan,nan -nan,nan -nan,nan -nan,nan -nan,nan -nan,nan 
-nan,nan -nan,nan -nan,nan -nan,nan -nan,nan"/>
<text text-anchor="middle" x="0" y="2.2" font-family="Helvetica,sans-Serif" font-weight="bold" font-size="9.00">sharedJS</text>
</g>
<g id="clust6" class="cluster">
<title>cluster_sharedJS/ability</title>
<path fill="#ffffff" stroke="black" stroke-width="2" d="M-nan,nanC-nan,nan -nan,nan -nan,nan -nan,nan -nan,nan -nan,nan -nan,nan -nan,nan -nan,nan -nan,nan -nan,nan -nan,nan -nan,nan -nan,nan -nan,nan -nan,nan -nan,nan -nan,nan -nan,nan 
-nan,nan -nan,nan -nan,nan -nan,nan -nan,nan"/>
<text text-anchor="middle" x="0" y="2.2" font-family="Helvetica,sans-Serif" font-weight="bold" font-size="9.00">ability</text>
</g>
<g id="clust7" class="cluster">
<title>cluster_sharedJS/map</title>
<path fill="#ffffff" stroke="black" stroke-width="2" d="M-nan,nanC-nan,nan -nan,nan -nan,nan -nan,nan -nan,nan -nan,nan -nan,nan -nan,nan -nan,nan -nan,nan -nan,nan -nan,nan -nan,nan -nan,nan -nan,nan -nan,nan -nan,nan -nan,nan -nan,nan 
-nan,nan -nan,nan -nan,nan -nan,nan -nan,nan"/>
<text text-anchor="middle" x="0" y="2.2" font-family="Helvetica,sans-Serif" font-weight="bold" font-size="9.00">map</text>
</g>
<g id="clust8" class="cluster">
<title>cluster_sharedJS/utils</title>
<path fill="#ffffff" stroke="black" stroke-width="2" d="M-nan,nanC-nan,nan -nan,nan -nan,nan -nan,nan -nan,nan -nan,nan -nan,nan -nan,nan -nan,nan -nan,nan -nan,nan -nan,nan -nan,nan -nan,nan -nan,nan -nan,nan -nan,nan -nan,nan -nan,nan 
-nan,nan -nan,nan -nan,nan -nan,nan -nan,nan"/>
<text text-anchor="middle" x="0" y="2.2" font-family="Helvetica,sans-Serif" font-weight="bold" font-size="9.00">utils</text>
</g>
<g id="clust9" class="cluster">
<title>cluster_test</title>
<path fill="#ffffff" stroke="black" stroke-width="2" d="M-nan,nanC-nan,nan -nan,nan -nan,nan -nan,nan -nan,nan -nan,nan -nan,nan -nan,nan -nan,nan -nan,nan -nan,nan -nan,nan -nan,nan -nan,nan -nan,nan -nan,nan -nan,nan -nan,nan -nan,nan 
-nan,nan -nan,nan -nan,nan -nan,nan -nan,nan"/>
<text text-anchor="middle" x="0" y="2.2" font-family="Helvetica,sans-Serif" font-weight="bold" font-size="9.00">test</text>
</g>
<!-- app.js -->
<g id="node1" class="node">
<title>app.js</title>
<g id="a_node1"><a xlink:href="app.js" xlink:title="app.js">
<path fill="#ffffcc" stroke="black" d="M4,-27C4,-27 -2,-27 -2,-27 -5,-27 -8,-24 -8,-21 -8,-21 -8,21 -8,21 -8,24 -5,27 -2,27 -2,27 4,27 4,27 7,27 10,24 10,21 10,21 10,-21 10,-21 10,-24 7,-27 4,-27"/>
<text text-anchor="middle" x="1" y="2.2" font-family="Helvetica,sans-Serif" font-size="9.00">app.js</text>
</a>
</g>
</g>
<!-- sharedJS/collisionEngine.js -->
<g id="node13" class="node">
<title>sharedJS/collisionEngine.js</title>
<g id="a_node13"><a xlink:href="sharedJS/collisionEngine.js" xlink:title="collisionEngine.js">
<path fill="#ffffcc" stroke="black" d="M12,-46.5C12,-46.5 6,-46.5 6,-46.5 3,-46.5 0,-43.5 0,-40.5 0,-40.5 0,40.5 0,40.5 0,43.5 3,46.5 6,46.5 6,46.5 12,46.5 12,46.5 15,46.5 18,43.5 18,40.5 18,40.5 18,-40.5 18,-40.5 18,-43.5 15,-46.5 12,-46.5"/>
<text text-anchor="middle" x="9" y="2.2" font-family="Helvetica,sans-Serif" font-size="9.00">collisionEngine.js</text>
</a>
</g>
</g>
<!-- sharedJS/map/gameMap.js -->
<g id="node14" class="node">
<title>sharedJS/map/gameMap.js</title>
<g id="a_node14"><a xlink:href="sharedJS/map/gameMap.js" xlink:title="gameMap.js">
<path fill="#ffffcc" stroke="black" d="M12,-35.5C12,-35.5 6,-35.5 6,-35.5 3,-35.5 0,-32.5 0,-29.5 0,-29.5 0,29.5 0,29.5 0,32.5 3,35.5 6,35.5 6,35.5 12,35.5 12,35.5 15,35.5 18,32.5 18,29.5 18,29.5 18,-29.5 18,-29.5 18,-32.5 15,-35.5 12,-35.5"/>
<text text-anchor="middle" x="9" y="2.2" font-family="Helvetica,sans-Serif" font-size="9.00">gameMap.js</text>
</a>
</g>
</g>
<!-- sharedJS/utils/channels.js -->
<g id="node16" class="node">
<title>sharedJS/utils/channels.js</title>
<g id="a_node16"><a xlink:href="sharedJS/utils/channels.js" xlink:title="channels.js">
<path fill="#ffffcc" stroke="black" d="M3,-33.5C3,-33.5 -3,-33.5 -3,-33.5 -6,-33.5 -9,-30.5 -9,-27.5 -9,-27.5 -9,27.5 -9,27.5 -9,30.5 -6,33.5 -3,33.5 -3,33.5 3,33.5 3,33.5 6,33.5 9,30.5 9,27.5 9,27.5 9,-27.5 9,-27.5 9,-30.5 6,-33.5 3,-33.5"/>
<text text-anchor="middle" x="0" y="2.2" font-family="Helvetica,sans-Serif" font-size="9.00">channels.js</text>
</a>
</g>
</g>
<!-- sharedJS/utils/enums.js -->
<g id="node17" class="node">
<title>sharedJS/utils/enums.js</title>
<g id="a_node17"><a xlink:href="sharedJS/utils/enums.js" xlink:title="enums.js">
<path fill="#ffffcc" stroke="black" d="M3,-28.5C3,-28.5 -3,-28.5 -3,-28.5 -6,-28.5 -9,-25.5 -9,-22.5 -9,-22.5 -9,22.5 -9,22.5 -9,25.5 -6,28.5 -3,28.5 -3,28.5 3,28.5 3,28.5 6,28.5 9,25.5 9,22.5 9,22.5 9,-22.5 9,-22.5 9,-25.5 6,-28.5 3,-28.5"/>
<text text-anchor="middle" x="0" y="2.2" font-family="Helvetica,sans-Serif" font-size="9.00">enums.js</text>
</a>
</g>
</g>
<!-- sharedJS/utils/time.js -->
<g id="node18" class="node">
<title>sharedJS/utils/time.js</title>
<g id="a_node18"><a xlink:href="sharedJS/utils/time.js" xlink:title="time.js">
<path fill="#ffffcc" stroke="black" d="M3,-27C3,-27 -3,-27 -3,-27 -6,-27 -9,-24 -9,-21 -9,-21 -9,21 -9,21 -9,24 -6,27 -3,27 -3,27 3,27 3,27 6,27 9,24 9,21 9,21 9,-21 9,-21 9,-24 6,-27 3,-27"/>
<text text-anchor="middle" x="0" y="2.2" font-family="Helvetica,sans-Serif" font-size="9.00">time.js</text>
</a>
</g>
</g>
<!-- sharedJS/dragon.js -->
<g id="node6" class="node">
<title>sharedJS/dragon.js</title>
<g id="a_node6"><a xlink:href="sharedJS/dragon.js" xlink:title="dragon.js">
<path fill="#ffffcc" stroke="black" d="M13,-29.5C13,-29.5 7,-29.5 7,-29.5 4,-29.5 1,-26.5 1,-23.5 1,-23.5 1,23.5 1,23.5 1,26.5 4,29.5 7,29.5 7,29.5 13,29.5 13,29.5 16,29.5 19,26.5 19,23.5 19,23.5 19,-23.5 19,-23.5 19,-26.5 16,-29.5 13,-29.5"/>
<text text-anchor="middle" x="10" y="2.2" font-family="Helvetica,sans-Serif" font-size="9.00">dragon.js</text>
</a>
</g>
</g>
<!-- sharedJS/vec2.js -->
<g id="node8" class="node">
<title>sharedJS/vec2.js</title>
<g id="a_node8"><a xlink:href="sharedJS/vec2.js" xlink:title="vec2.js">
<path fill="#ffffcc" stroke="black" d="M3,-27C3,-27 -3,-27 -3,-27 -6,-27 -9,-24 -9,-21 -9,-21 -9,21 -9,21 -9,24 -6,27 -3,27 -3,27 3,27 3,27 6,27 9,24 9,21 9,21 9,-21 9,-21 9,-24 6,-27 3,-27"/>
<text text-anchor="middle" x="0" y="2.2" font-family="Helvetica,sans-Serif" font-size="9.00">vec2.js</text>
</a>
</g>
</g>
<!-- sharedJS/shapes.js -->
<g id="node28" class="node">
<title>sharedJS/shapes.js</title>
<g id="a_node28"><a xlink:href="sharedJS/shapes.js" xlink:title="shapes.js">
<path fill="#ffffcc" stroke="black" d="M12,-29C12,-29 6,-29 6,-29 3,-29 0,-26 0,-23 0,-23 0,23 0,23 0,26 3,29 6,29 6,29 12,29 12,29 15,29 18,26 18,23 18,23 18,-23 18,-23 18,-26 15,-29 12,-29"/>
<text text-anchor="middle" x="9" y="2.2" font-family="Helvetica,sans-Serif" font-size="9.00">shapes.js</text>
</a>
</g>
</g>
<!-- clientJS/playerController.js -->
<g id="node19" class="node">
<title>clientJS/playerController.js</title>
<g id="a_node19"><a xlink:href="clientJS/playerController.js" xlink:title="playerController.js">
<path fill="#ffffcc" stroke="black" d="M15,-48.5C15,-48.5 9,-48.5 9,-48.5 6,-48.5 3,-45.5 3,-42.5 3,-42.5 3,42.5 3,42.5 3,45.5 6,48.5 9,48.5 9,48.5 15,48.5 15,48.5 18,48.5 21,45.5 21,42.5 21,42.5 21,-42.5 21,-42.5 21,-45.5 18,-48.5 15,-48.5"/>
<text text-anchor="middle" x="12" y="2.2" font-family="Helvetica,sans-Serif" font-size="9.00">playerController.js</text>
</a>
</g>
</g>
<!-- sharedJS/quadTree.js -->
<g id="node45" class="node">
<title>sharedJS/quadTree.js</title>
<g id="a_node45"><a xlink:href="sharedJS/quadTree.js" xlink:title="quadTree.js">
<path fill="#ffffcc" stroke="black" d="M14,-34C14,-34 8,-34 8,-34 5,-34 2,-31 2,-28 2,-28 2,28 2,28 2,31 5,34 8,34 8,34 14,34 14,34 17,34 20,31 20,28 20,28 20,-28 20,-28 20,-31 17,-34 14,-34"/>
<text text-anchor="middle" x="11" y="2.2" font-family="Helvetica,sans-Serif" font-size="9.00">quadTree.js</text>
</a>
</g>
</g>
<!-- sharedJS/map/lane.js -->
<g id="node47" class="node">
<title>sharedJS/map/lane.js</title>
<g id="a_node47"><a xlink:href="sharedJS/map/lane.js" xlink:title="lane.js">
<path fill="#ffffcc" stroke="black" d="M12,-27C12,-27 6,-27 6,-27 3,-27 0,-24 0,-21 0,-21 0,21 0,21 0,24 3,27 6,27 6,27 12,27 12,27 15,27 18,24 18,21 18,21 18,-21 18,-21 18,-24 15,-27 12,-27"/>
<text text-anchor="middle" x="9" y="2.2" font-family="Helvetica,sans-Serif" font-size="9.00">lane.js</text>
</a>
</g>
</g>
<!-- sharedJS/map/voidRegion.js -->
<g id="node48" class="node">
<title>sharedJS/map/voidRegion.js</title>
<g id="a_node48"><a xlink:href="sharedJS/map/voidRegion.js" xlink:title="voidRegion.js">
<path fill="#ffffcc" stroke="black" d="M10,-38C10,-38 4,-38 4,-38 1,-38 -2,-35 -2,-32 -2,-32 -2,32 -2,32 -2,35 1,38 4,38 4,38 10,38 10,38 13,38 16,35 16,32 16,32 16,-32 16,-32 16,-35 13,-38 10,-38"/>
<text text-anchor="middle" x="7" y="2.2" font-family="Helvetica,sans-Serif" font-size="9.00">voidRegion.js</text>
</a>
</g>
</g>
<!-- clientJS/clientUtils.js -->
<g id="node21" class="node">
<title>clientJS/clientUtils.js</title>
<g id="a_node21"><a xlink:href="clientJS/clientUtils.js" xlink:title="clientUtils.js">
<path fill="#ccffcc" stroke="black" d="M4,-35.5C4,-35.5 -2,-35.5 -2,-35.5 -5,-35.5 -8,-32.5 -8,-29.5 -8,-29.5 -8,29.5 -8,29.5 -8,32.5 -5,35.5 -2,35.5 -2,35.5 4,35.5 4,35.5 7,35.5 10,32.5 10,29.5 10,29.5 10,-29.5 10,-29.5 10,-32.5 7,-35.5 4,-35.5"/>
<text text-anchor="middle" x="1" y="2.2" font-family="Helvetica,sans-Serif" font-size="9.00">clientUtils.js</text>
</a>
</g>
</g>
<!-- clientJS/index.js -->
<g id="node24" class="node">
<title>clientJS/index.js</title>
<g id="a_node24"><a xlink:href="clientJS/index.js" xlink:title="index.js">
<path fill="#ffffcc" stroke="black" d="M3,-27C3,-27 -3,-27 -3,-27 -6,-27 -9,-24 -9,-21 -9,-21 -9,21 -9,21 -9,24 -6,27 -3,27 -3,27 3,27 3,27 6,27 9,24 9,21 9,21 9,-21 9,-21 9,-24 6,-27 3,-27"/>
<text text-anchor="middle" x="0" y="2.2" font-family="Helvetica,sans-Serif" font-size="9.00">index.js</text>
</a>
</g>
</g>
<!-- sharedJS/utils/utils.js -->
<g id="node29" class="node">
<title>sharedJS/utils/utils.js</title>
<g id="a_node29"><a xlink:href="sharedJS/utils/utils.js" xlink:title="utils.js">
<path fill="#ffffcc" stroke="black" d="M3,-27C3,-27 -3,-27 -3,-27 -6,-27 -9,-24 -9,-21 -9,-21 -9,21 -9,21 -9,24 -6,27 -3,27 -3,27 3,27 3,27 6,27 9,24 9,21 9,21 9,-21 9,-21 9,-24 6,-27 3,-27"/>
<text text-anchor="middle" x="0" y="2.2" font-family="Helvetica,sans-Serif" font-size="9.00">utils.js</text>
</a>
</g>
</g>
<!-- clientJS/mapGen/index.js -->
<g id="node31" class="node">
<title>clientJS/mapGen/index.js</title>
<g id="a_node31"><a xlink:href="clientJS/mapGen/index.js" xlink:title="index.js">
<path fill="#ffffcc" stroke="black" d="M6,-27C6,-27 0,-27 0,-27 -3,-27 -6,-24 -6,-21 -6,-21 -6,21 -6,21 -6,24 -3,27 0,27 0,27 6,27 6,27 9,27 12,24 12,21 12,21 12,-21 12,-21 12,-24 9,-27 6,-27"/>
<text text-anchor="middle" x="3" y="2.2" font-family="Helvetica,sans-Serif" font-size="9.00">index.js</text>
</a>
</g>
</g>
<!-- clientJS/socket.io/socket.io.js -->
<g id="node36" class="node">
<title>clientJS/socket.io/socket.io.js</title>
<g id="a_node36"><a xlink:href="clientJS/socket.io/socket.io.js" xlink:title="socket.io.js">
<path fill="#ccffcc" stroke="black" d="M5,-33C5,-33 -1,-33 -1,-33 -4,-33 -7,-30 -7,-27 -7,-27 -7,27 -7,27 -7,30 -4,33 -1,33 -1,33 5,33 5,33 8,33 11,30 11,27 11,27 11,-27 11,-27 11,-30 8,-33 5,-33"/>
<text text-anchor="middle" x="2" y="2.2" font-family="Helvetica,sans-Serif" font-size="9.00">socket.io.js</text>
</a>
</g>
</g>
<!-- sharedJS/utils/dirsMap.js -->
<g id="node39" class="node">
<title>sharedJS/utils/dirsMap.js</title>
<g id="a_node39"><a xlink:href="sharedJS/utils/dirsMap.js" xlink:title="dirsMap.js">
<path fill="#ffffcc" stroke="black" d="M3,-31C3,-31 -3,-31 -3,-31 -6,-31 -9,-28 -9,-25 -9,-25 -9,25 -9,25 -9,28 -6,31 -3,31 -3,31 3,31 3,31 6,31 9,28 9,25 9,25 9,-25 9,-25 9,-28 6,-31 3,-31"/>
<text text-anchor="middle" x="0" y="2.2" font-family="Helvetica,sans-Serif" font-size="9.00">dirsMap.js</text>
</a>
</g>
</g>
<!-- sharedJS/point.js -->
<g id="node46" class="node">
<title>sharedJS/point.js</title>
<g id="a_node46"><a xlink:href="sharedJS/point.js" xlink:title="point.js">
<path fill="#ffffcc" stroke="black" d="M12,-27C12,-27 6,-27 6,-27 3,-27 0,-24 0,-21 0,-21 0,21 0,21 0,24 3,27 6,27 6,27 12,27 12,27 15,27 18,24 18,21 18,21 18,-21 18,-21 18,-24 15,-27 12,-27"/>
<text text-anchor="middle" x="9" y="2.2" font-family="Helvetica,sans-Serif" font-size="9.00">point.js</text>
</a>
</g>
</g>
<!-- test/entity.js -->
<g id="node56" class="node">
<title>test/entity.js</title>
<g id="a_node56"><a xlink:href="test/entity.js" xlink:title="entity.js">
<path fill="#ffffcc" stroke="black" d="M3,-27C3,-27 -3,-27 -3,-27 -6,-27 -9,-24 -9,-21 -9,-21 -9,21 -9,21 -9,24 -6,27 -3,27 -3,27 3,27 3,27 6,27 9,24 9,21 9,21 9,-21 9,-21 9,-24 6,-27 3,-27"/>
<text text-anchor="middle" x="0" y="2.2" font-family="Helvetica,sans-Serif" font-size="9.00">entity.js</text>
</a>
</g>
</g>
<!-- test/player.js -->
<g id="node57" class="node">
<title>test/player.js</title>
<g id="a_node57"><a xlink:href="test/player.js" xlink:title="player.js">
<path fill="#ffffcc" stroke="black" d="M3,-27C3,-27 -3,-27 -3,-27 -6,-27 -9,-24 -9,-21 -9,-21 -9,21 -9,21 -9,24 -6,27 -3,27 -3,27 3,27 3,27 6,27 9,24 9,21 9,21 9,-21 9,-21 9,-24 6,-27 3,-27"/>
<text text-anchor="middle" x="0" y="2.2" font-family="Helvetica,sans-Serif" font-size="9.00">player.js</text>
</a>
</g>
</g>
<!-- test/point.js -->
<g id="node58" class="node">
<title>test/point.js</title>
<g id="a_node58"><a xlink:href="test/point.js" xlink:title="point.js">
<path fill="#ffffcc" stroke="black" d="M3,-27C3,-27 -3,-27 -3,-27 -6,-27 -9,-24 -9,-21 -9,-21 -9,21 -9,21 -9,24 -6,27 -3,27 -3,27 3,27 3,27 6,27 9,24 9,21 9,21 9,-21 9,-21 9,-24 6,-27 3,-27"/>
<text text-anchor="middle" x="0" y="2.2" font-family="Helvetica,sans-Serif" font-size="9.00">point.js</text>
</a>
</g>
</g>
<!-- test/quadTree.js -->
<g id="node59" class="node">
<title>test/quadTree.js</title>
<g id="a_node59"><a xlink:href="test/quadTree.js" xlink:title="quadTree.js">
<path fill="#ffffcc" stroke="black" d="M3,-34C3,-34 -3,-34 -3,-34 -6,-34 -9,-31 -9,-28 -9,-28 -9,28 -9,28 -9,31 -6,34 -3,34 -3,34 3,34 3,34 6,34 9,31 9,28 9,28 9,-28 9,-28 9,-31 6,-34 3,-34"/>
<text text-anchor="middle" x="0" y="2.2" font-family="Helvetica,sans-Serif" font-size="9.00">quadTree.js</text>
</a>
</g>
</g>
<!-- test/shapes.js -->
<g id="node60" class="node">
<title>test/shapes.js</title>
<g id="a_node60"><a xlink:href="test/shapes.js" xlink:title="shapes.js">
<path fill="#ffffcc" stroke="black" d="M3,-29C3,-29 -3,-29 -3,-29 -6,-29 -9,-26 -9,-23 -9,-23 -9,23 -9,23 -9,26 -6,29 -3,29 -3,29 3,29 3,29 6,29 9,26 9,23 9,23 9,-23 9,-23 9,-26 6,-29 3,-29"/>
<text text-anchor="middle" x="0" y="2.2" font-family="Helvetica,sans-Serif" font-size="9.00">shapes.js</text>
</a>
</g>
</g>
<!-- test/vec2.js -->
<g id="node61" class="node">
<title>test/vec2.js</title>
<g id="a_node61"><a xlink:href="test/vec2.js" xlink:title="vec2.js">
<path fill="#ffffcc" stroke="black" d="M3,-27C3,-27 -3,-27 -3,-27 -6,-27 -9,-24 -9,-21 -9,-21 -9,21 -9,21 -9,24 -6,27 -3,27 -3,27 3,27 3,27 6,27 9,24 9,21 9,21 9,-21 9,-21 9,-24 6,-27 3,-27"/>
<text text-anchor="middle" x="0" y="2.2" font-family="Helvetica,sans-Serif" font-size="9.00">vec2.js</text>
</a>
</g>
</g>
</g>
</svg>