<?xml version="1.0" encoding="UTF-8" standalone="no"?>
<!DOCTYPE svg PUBLIC "-//W3C//DTD SVG 1.1//EN"
 "http://www.w3.org/Graphics/SVG/1.1/DTD/svg11.dtd">
<!-- Generated by graphviz version 2.43.0 (0)
 -->
<!-- Title: dependency&#45;cruiser output Pages: 1 -->
<svg width="8pt" height="8pt"
 viewBox="0.00 0.00 8.00 8.00" xmlns="http://www.w3.org/2000/svg" xmlns:xlink="http://www.w3.org/1999/xlink">
<g id="graph0" class="graph" transform="scale(1 1) rotate(0) translate(4 4)">
<title>dependency&#45;cruiser output</title>
<polygon fill="white" stroke="transparent" points="-4,4 -4,-4 4,-4 4,4 -4,4"/>
<g id="clust1" class="cluster">
<title>cluster_src</title>
<path fill="#ffffff" stroke="black" stroke-width="2" d="M-nan,nanC-nan,nan -nan,nan -nan,nan -nan,nan -nan,nan -nan,nan -nan,nan -nan,nan -nan,nan -nan,nan -nan,nan -nan,nan -nan,nan -nan,nan -nan,nan -nan,nan -nan,nan -nan,nan -nan,nan -nan,nan -nan,nan -nan,nan -nan,nan -nan,nan"/>
<text text-anchor="middle" x="0" y="2.2" font-family="Helvetica,sans-Serif" font-weight="bold" font-size="9.00">src</text>
</g>
<g id="clust2" class="cluster">
<title>cluster_src/sharedJS</title>
<path fill="#ffffff" stroke="black" stroke-width="2" d="M-nan,nanC-nan,nan -nan,nan -nan,nan -nan,nan -nan,nan -nan,nan -nan,nan -nan,nan -nan,nan -nan,nan -nan,nan -nan,nan -nan,nan -nan,nan -nan,nan -nan,nan -nan,nan -nan,nan -nan,nan -nan,nan -nan,nan -nan,nan -nan,nan -nan,nan"/>
<text text-anchor="middle" x="0" y="2.2" font-family="Helvetica,sans-Serif" font-weight="bold" font-size="9.00">sharedJS</text>
</g>
<g id="clust3" class="cluster">
<title>cluster_src/sharedJS/ability</title>
<path fill="#ffffff" stroke="black" stroke-width="2" d="M-nan,nanC-nan,nan -nan,nan -nan,nan -nan,nan -nan,nan -nan,nan -nan,nan -nan,nan -nan,nan -nan,nan -nan,nan -nan,nan -nan,nan -nan,nan -nan,nan -nan,nan -nan,nan -nan,nan -nan,nan -nan,nan -nan,nan -nan,nan -nan,nan -nan,nan"/>
<text text-anchor="middle" x="0" y="2.2" font-family="Helvetica,sans-Serif" font-weight="bold" font-size="9.00">ability</text>
</g>
<g id="clust4" class="cluster">
<title>cluster_src/sharedJS/map</title>
<path fill="#ffffff" stroke="black" stroke-width="2" d="M-nan,nanC-nan,nan -nan,nan -nan,nan -nan,nan -nan,nan -nan,nan -nan,nan -nan,nan -nan,nan -nan,nan -nan,nan -nan,nan -nan,nan -nan,nan -nan,nan -nan,nan -nan,nan -nan,nan -nan,nan -nan,nan -nan,nan -nan,nan -nan,nan -nan,nan"/>
<text text-anchor="middle" x="0" y="2.2" font-family="Helvetica,sans-Serif" font-weight="bold" font-size="9.00">map</text>
</g>
<g id="clust5" class="cluster">
<title>cluster_src/sharedJS/utils</title>
<path fill="#ffffff" stroke="black" stroke-width="2" d="M-nan,nanC-nan,nan -nan,nan -nan,nan -nan,nan -nan,nan -nan,nan -nan,nan -nan,nan -nan,nan -nan,nan -nan,nan -nan,nan -nan,nan -nan,nan -nan,nan -nan,nan -nan,nan -nan,nan -nan,nan -nan,nan -nan,nan -nan,nan -nan,nan -nan,nan"/>
<text text-anchor="middle" x="0" y="2.2" font-family="Helvetica,sans-Serif" font-weight="bold" font-size="9.00">utils</text>
</g>
<!-- src/sharedJS/shapes.js -->
<g id="node2" class="node">
<title>src/sharedJS/shapes.js</title>
<g id="a_node2"><a xlink:href="src/sharedJS/shapes.js" xlink:title="shapes.js">
<path fill="#ffffcc" stroke="black" d="M15,-29C15,-29 9,-29 9,-29 6,-29 3,-26 3,-23 3,-23 3,23 3,23 3,26 6,29 9,29 9,29 15,29 15,29 18,29 21,26 21,23 21,23 21,-23 21,-23 21,-26 18,-29 15,-29"/>
<text text-anchor="middle" x="12" y="2.2" font-family="Helvetica,sans-Serif" font-size="9.00">shapes.js</text>
</a>
</g>
</g>
<!-- src/sharedJS/vec2.js -->
<g id="node3" class="node">
<title>src/sharedJS/vec2.js</title>
<g id="a_node3"><a xlink:href="src/sharedJS/vec2.js" xlink:title="vec2.js">
<path fill="#ffffcc" stroke="black" d="M3,-27C3,-27 -3,-27 -3,-27 -6,-27 -9,-24 -9,-21 -9,-21 -9,21 -9,21 -9,24 -6,27 -3,27 -3,27 3,27 3,27 6,27 9,24 9,21 9,21 9,-21 9,-21 9,-24 6,-27 3,-27"/>
<text text-anchor="middle" x="0" y="2.2" font-family="Helvetica,sans-Serif" font-size="9.00">vec2.js</text>
</a>
</g>
</g>
<!-- src/sharedJS/utils/enums.js -->
<g id="node6" class="node">
<title>src/sharedJS/utils/enums.js</title>
<g id="a_node6"><a xlink:href="src/sharedJS/utils/enums.js" xlink:title="enums.js">
<path fill="#ffffcc" stroke="black" d="M3,-28.5C3,-28.5 -3,-28.5 -3,-28.5 -6,-28.5 -9,-25.5 -9,-22.5 -9,-22.5 -9,22.5 -9,22.5 -9,25.5 -6,28.5 -3,28.5 -3,28.5 3,28.5 3,28.5 6,28.5 9,25.5 9,22.5 9,22.5 9,-22.5 9,-22.5 9,-25.5 6,-28.5 3,-28.5"/>
<text text-anchor="middle" x="0" y="2.2" font-family="Helvetica,sans-Serif" font-size="9.00">enums.js</text>
</a>
</g>
</g>
<!-- src/sharedJS/entity.js -->
<g id="node10" class="node">
<title>src/sharedJS/entity.js</title>
<g id="a_node10"><a xlink:href="src/sharedJS/entity.js" xlink:title="entity.js">
<path fill="#ffffcc" stroke="black" d="M13,-27C13,-27 7,-27 7,-27 4,-27 1,-24 1,-21 1,-21 1,21 1,21 1,24 4,27 7,27 7,27 13,27 13,27 16,27 19,24 19,21 19,21 19,-21 19,-21 19,-24 16,-27 13,-27"/>
<text text-anchor="middle" x="10" y="2.2" font-family="Helvetica,sans-Serif" font-size="9.00">entity.js</text>
</a>
</g>
</g>
<!-- src/sharedJS/player.js -->
<g id="node11" class="node">
<title>src/sharedJS/player.js</title>
<g id="a_node11"><a xlink:href="src/sharedJS/player.js" xlink:title="player.js">
<path fill="#ffffcc" stroke="black" d="M11,-27C11,-27 5,-27 5,-27 2,-27 -1,-24 -1,-21 -1,-21 -1,21 -1,21 -1,24 2,27 5,27 5,27 11,27 11,27 14,27 17,24 17,21 17,21 17,-21 17,-21 17,-24 14,-27 11,-27"/>
<text text-anchor="middle" x="8" y="2.2" font-family="Helvetica,sans-Serif" font-size="9.00">player.js</text>
</a>
</g>
</g>
<!-- src/sharedJS/map/region.js -->
<g id="node23" class="node">
<title>src/sharedJS/map/region.js</title>
<g id="a_node23"><a xlink:href="src/sharedJS/map/region.js" xlink:title="region.js">
<path fill="#ffffcc" stroke="black" d="M7,-27.5C7,-27.5 1,-27.5 1,-27.5 -2,-27.5 -5,-24.5 -5,-21.5 -5,-21.5 -5,21.5 -5,21.5 -5,24.5 -2,27.5 1,27.5 1,27.5 7,27.5 7,27.5 10,27.5 13,24.5 13,21.5 13,21.5 13,-21.5 13,-21.5 13,-24.5 10,-27.5 7,-27.5"/>
<text text-anchor="middle" x="4" y="2.2" font-family="Helvetica,sans-Serif" font-size="9.00">region.js</text>
</a>
</g>
</g>
<!-- src/sharedJS/map/pveObjectiveRegion.js -->
<g id="node26" class="node">
<title>src/sharedJS/map/pveObjectiveRegion.js</title>
<g id="a_node26"><a xlink:href="src/sharedJS/map/pveObjectiveRegion.js" xlink:title="pveObjectiveRegion.js">
<path fill="#ffffcc" stroke="black" d="M10,-58C10,-58 4,-58 4,-58 1,-58 -2,-55 -2,-52 -2,-52 -2,52 -2,52 -2,55 1,58 4,58 4,58 10,58 10,58 13,58 16,55 16,52 16,52 16,-52 16,-52 16,-55 13,-58 10,-58"/>
<text text-anchor="middle" x="7" y="2.2" font-family="Helvetica,sans-Serif" font-size="9.00">pveObjectiveRegion.js</text>
</a>
</g>
</g>
<!-- src/sharedJS/map/pveRegion.js -->
<g id="node27" class="node">
<title>src/sharedJS/map/pveRegion.js</title>
<g id="a_node27"><a xlink:href="src/sharedJS/map/pveRegion.js" xlink:title="pveRegion.js">
<path fill="#ffffcc" stroke="black" d="M11,-37C11,-37 5,-37 5,-37 2,-37 -1,-34 -1,-31 -1,-31 -1,31 -1,31 -1,34 2,37 5,37 5,37 11,37 11,37 14,37 17,34 17,31 17,31 17,-31 17,-31 17,-34 14,-37 11,-37"/>
<text text-anchor="middle" x="8" y="2.2" font-family="Helvetica,sans-Serif" font-size="9.00">pveRegion.js</text>
</a>
</g>
</g>
<!-- src/sharedJS/map/tile.js -->
<g id="node29" class="node">
<title>src/sharedJS/map/tile.js</title>
<g id="a_node29"><a xlink:href="src/sharedJS/map/tile.js" xlink:title="tile.js">
<path fill="#ffffcc" stroke="black" d="M6,-27C6,-27 0,-27 0,-27 -3,-27 -6,-24 -6,-21 -6,-21 -6,21 -6,21 -6,24 -3,27 0,27 0,27 6,27 6,27 9,27 12,24 12,21 12,21 12,-21 12,-21 12,-24 9,-27 6,-27"/>
<text text-anchor="middle" x="3" y="2.2" font-family="Helvetica,sans-Serif" font-size="9.00">tile.js</text>
</a>
</g>
</g>
<!-- src/sharedJS/map/objectiveRegion.js -->
<g id="node30" class="node">
<title>src/sharedJS/map/objectiveRegion.js</title>
<g id="a_node30"><a xlink:href="src/sharedJS/map/objectiveRegion.js" xlink:title="objectiveRegion.js">
<path fill="#ffffcc" stroke="black" d="M13,-49C13,-49 7,-49 7,-49 4,-49 1,-46 1,-43 1,-43 1,43 1,43 1,46 4,49 7,49 7,49 13,49 13,49 16,49 19,46 19,43 19,43 19,-43 19,-43 19,-46 16,-49 13,-49"/>
<text text-anchor="middle" x="10" y="2.2" font-family="Helvetica,sans-Serif" font-size="9.00">objectiveRegion.js</text>
</a>
</g>
</g>
<!-- src/sharedJS/map/spawnRegion.js -->
<g id="node31" class="node">
<title>src/sharedJS/map/spawnRegion.js</title>
<g id="a_node31"><a xlink:href="src/sharedJS/map/spawnRegion.js" xlink:title="spawnRegion.js">
<path fill="#ffffcc" stroke="black" d="M12,-43C12,-43 6,-43 6,-43 3,-43 0,-40 0,-37 0,-37 0,37 0,37 0,40 3,43 6,43 6,43 12,43 12,43 15,43 18,40 18,37 18,37 18,-37 18,-37 18,-40 15,-43 12,-43"/>
<text text-anchor="middle" x="9" y="2.2" font-family="Helvetica,sans-Serif" font-size="9.00">spawnRegion.js</text>
</a>
</g>
</g>
<!-- src/sharedJS/map/victoryMonument.js -->
<g id="node32" class="node">
<title>src/sharedJS/map/victoryMonument.js</title>
<g id="a_node32"><a xlink:href="src/sharedJS/map/victoryMonument.js" xlink:title="victoryMonument.js">
<path fill="#ffffcc" stroke="black" d="M9,-53C9,-53 3,-53 3,-53 0,-53 -3,-50 -3,-47 -3,-47 -3,47 -3,47 -3,50 0,53 3,53 3,53 9,53 9,53 12,53 15,50 15,47 15,47 15,-47 15,-47 15,-50 12,-53 9,-53"/>
<text text-anchor="middle" x="6" y="2.2" font-family="Helvetica,sans-Serif" font-size="9.00">victoryMonument.js</text>
</a>
</g>
</g>
<!-- src/sharedJS/ability/fireballAbility.js -->
<g id="node7" class="node">
<title>src/sharedJS/ability/fireballAbility.js</title>
<g id="a_node7"><a xlink:href="src/sharedJS/ability/fireballAbility.js" xlink:title="fireballAbility.js">
<path fill="#ffffcc" stroke="black" d="M13,-41.5C13,-41.5 7,-41.5 7,-41.5 4,-41.5 1,-38.5 1,-35.5 1,-35.5 1,35.5 1,35.5 1,38.5 4,41.5 7,41.5 7,41.5 13,41.5 13,41.5 16,41.5 19,38.5 19,35.5 19,35.5 19,-35.5 19,-35.5 19,-38.5 16,-41.5 13,-41.5"/>
<text text-anchor="middle" x="10" y="2.2" font-family="Helvetica,sans-Serif" font-size="9.00">fireballAbility.js</text>
</a>
</g>
</g>
<!-- src/sharedJS/ability/plantSeedAbility.js -->
<g id="node9" class="node">
<title>src/sharedJS/ability/plantSeedAbility.js</title>
<g id="a_node9"><a xlink:href="src/sharedJS/ability/plantSeedAbility.js" xlink:title="plantSeedAbility.js">
<path fill="#ffffcc" stroke="black" d="M14,-49C14,-49 8,-49 8,-49 5,-49 2,-46 2,-43 2,-43 2,43 2,43 2,46 5,49 8,49 8,49 14,49 14,49 17,49 20,46 20,43 20,43 20,-43 20,-43 20,-46 17,-49 14,-49"/>
<text text-anchor="middle" x="11" y="2.2" font-family="Helvetica,sans-Serif" font-size="9.00">plantSeedAbility.js</text>
</a>
</g>
</g>
<!-- src/sharedJS/utils/time.js -->
<g id="node17" class="node">
<title>src/sharedJS/utils/time.js</title>
<g id="a_node17"><a xlink:href="src/sharedJS/utils/time.js" xlink:title="time.js">
<path fill="#ffffcc" stroke="black" d="M3,-27C3,-27 -3,-27 -3,-27 -6,-27 -9,-24 -9,-21 -9,-21 -9,21 -9,21 -9,24 -6,27 -3,27 -3,27 3,27 3,27 6,27 9,24 9,21 9,21 9,-21 9,-21 9,-24 6,-27 3,-27"/>
<text text-anchor="middle" x="0" y="2.2" font-family="Helvetica,sans-Serif" font-size="9.00">time.js</text>
</a>
</g>
</g>
<!-- src/sharedJS/point.js -->
<g id="node20" class="node">
<title>src/sharedJS/point.js</title>
<g id="a_node20"><a xlink:href="src/sharedJS/point.js" xlink:title="point.js">
<path fill="#ffffcc" stroke="black" d="M15,-27C15,-27 9,-27 9,-27 6,-27 3,-24 3,-21 3,-21 3,21 3,21 3,24 6,27 9,27 9,27 15,27 15,27 18,27 21,24 21,21 21,21 21,-21 21,-21 21,-24 18,-27 15,-27"/>
<text text-anchor="middle" x="12" y="2.2" font-family="Helvetica,sans-Serif" font-size="9.00">point.js</text>
</a>
</g>
</g>
<!-- src/sharedJS/ability/waterballAbility.js -->
<g id="node13" class="node">
<title>src/sharedJS/ability/waterballAbility.js</title>
<g id="a_node13"><a xlink:href="src/sharedJS/ability/waterballAbility.js" xlink:title="waterballAbility.js">
<path fill="#ffffcc" stroke="black" d="M15,-47C15,-47 9,-47 9,-47 6,-47 3,-44 3,-41 3,-41 3,41 3,41 3,44 6,47 9,47 9,47 15,47 15,47 18,47 21,44 21,41 21,41 21,-41 21,-41 21,-44 18,-47 15,-47"/>
<text text-anchor="middle" x="12" y="2.2" font-family="Helvetica,sans-Serif" font-size="9.00">waterballAbility.js</text>
</a>
</g>
</g>
<!-- src/sharedJS/box.js -->
<g id="node14" class="node">
<title>src/sharedJS/box.js</title>
<g id="a_node14"><a xlink:href="src/sharedJS/box.js" xlink:title="box.js">
<path fill="#ffffcc" stroke="black" d="M13,-27C13,-27 7,-27 7,-27 4,-27 1,-24 1,-21 1,-21 1,21 1,21 1,24 4,27 7,27 7,27 13,27 13,27 16,27 19,24 19,21 19,21 19,-21 19,-21 19,-24 16,-27 13,-27"/>
<text text-anchor="middle" x="10" y="2.2" font-family="Helvetica,sans-Serif" font-size="9.00">box.js</text>
</a>
</g>
</g>
<!-- src/sharedJS/collisionEngine.js -->
<g id="node15" class="node">
<title>src/sharedJS/collisionEngine.js</title>
<g id="a_node15"><a xlink:href="src/sharedJS/collisionEngine.js" xlink:title="collisionEngine.js">
<path fill="#ffffcc" stroke="black" d="M4,-46.5C4,-46.5 -2,-46.5 -2,-46.5 -5,-46.5 -8,-43.5 -8,-40.5 -8,-40.5 -8,40.5 -8,40.5 -8,43.5 -5,46.5 -2,46.5 -2,46.5 4,46.5 4,46.5 7,46.5 10,43.5 10,40.5 10,40.5 10,-40.5 10,-40.5 10,-43.5 7,-46.5 4,-46.5"/>
<text text-anchor="middle" x="1" y="2.2" font-family="Helvetica,sans-Serif" font-size="9.00">collisionEngine.js</text>
</a>
</g>
</g>
<!-- src/sharedJS/dragon.js -->
<g id="node18" class="node">
<title>src/sharedJS/dragon.js</title>
<g id="a_node18"><a xlink:href="src/sharedJS/dragon.js" xlink:title="dragon.js">
<path fill="#ffffcc" stroke="black" d="M9,-29.5C9,-29.5 3,-29.5 3,-29.5 0,-29.5 -3,-26.5 -3,-23.5 -3,-23.5 -3,23.5 -3,23.5 -3,26.5 0,29.5 3,29.5 3,29.5 9,29.5 9,29.5 12,29.5 15,26.5 15,23.5 15,23.5 15,-23.5 15,-23.5 15,-26.5 12,-29.5 9,-29.5"/>
<text text-anchor="middle" x="6" y="2.2" font-family="Helvetica,sans-Serif" font-size="9.00">dragon.js</text>
</a>
</g>
</g>
<!-- src/sharedJS/dragonData.js -->
<g id="node19" class="node">
<title>src/sharedJS/dragonData.js</title>
<g id="a_node19"><a xlink:href="src/sharedJS/dragonData.js" xlink:title="dragonData.js">
<path fill="#ffffcc" stroke="black" d="M10,-40C10,-40 4,-40 4,-40 1,-40 -2,-37 -2,-34 -2,-34 -2,34 -2,34 -2,37 1,40 4,40 4,40 10,40 10,40 13,40 16,37 16,34 16,34 16,-34 16,-34 16,-37 13,-40 10,-40"/>
<text text-anchor="middle" x="7" y="2.2" font-family="Helvetica,sans-Serif" font-size="9.00">dragonData.js</text>
</a>
</g>
</g>
<!-- src/sharedJS/map/gameMap.js -->
<g id="node21" class="node">
<title>src/sharedJS/map/gameMap.js</title>
<g id="a_node21"><a xlink:href="src/sharedJS/map/gameMap.js" xlink:title="gameMap.js">
<path fill="#ffffcc" stroke="black" d="M3,-35.5C3,-35.5 -3,-35.5 -3,-35.5 -6,-35.5 -9,-32.5 -9,-29.5 -9,-29.5 -9,29.5 -9,29.5 -9,32.5 -6,35.5 -3,35.5 -3,35.5 3,35.5 3,35.5 6,35.5 9,32.5 9,29.5 9,29.5 9,-29.5 9,-29.5 9,-32.5 6,-35.5 3,-35.5"/>
<text text-anchor="middle" x="0" y="2.2" font-family="Helvetica,sans-Serif" font-size="9.00">gameMap.js</text>
</a>
</g>
</g>
<!-- src/sharedJS/map/lane.js -->
<g id="node22" class="node">
<title>src/sharedJS/map/lane.js</title>
<g id="a_node22"><a xlink:href="src/sharedJS/map/lane.js" xlink:title="lane.js">
<path fill="#ffffcc" stroke="black" d="M5,-27C5,-27 -1,-27 -1,-27 -4,-27 -7,-24 -7,-21 -7,-21 -7,21 -7,21 -7,24 -4,27 -1,27 -1,27 5,27 5,27 8,27 11,24 11,21 11,21 11,-21 11,-21 11,-24 8,-27 5,-27"/>
<text text-anchor="middle" x="2" y="2.2" font-family="Helvetica,sans-Serif" font-size="9.00">lane.js</text>
</a>
</g>
</g>
<!-- src/sharedJS/map/voidRegion.js -->
<g id="node24" class="node">
<title>src/sharedJS/map/voidRegion.js</title>
<g id="a_node24"><a xlink:href="src/sharedJS/map/voidRegion.js" xlink:title="voidRegion.js">
<path fill="#ffffcc" stroke="black" d="M3,-38C3,-38 -3,-38 -3,-38 -6,-38 -9,-35 -9,-32 -9,-32 -9,32 -9,32 -9,35 -6,38 -3,38 -3,38 3,38 3,38 6,38 9,35 9,32 9,32 9,-32 9,-32 9,-35 6,-38 3,-38"/>
<text text-anchor="middle" x="0" y="2.2" font-family="Helvetica,sans-Serif" font-size="9.00">voidRegion.js</text>
</a>
</g>
</g>
<!-- src/sharedJS/map/layer.js -->
<g id="node25" class="node">
<title>src/sharedJS/map/layer.js</title>
<g id="a_node25"><a xlink:href="src/sharedJS/map/layer.js" xlink:title="layer.js">
<path fill="#ffffcc" stroke="black" d="M7,-27C7,-27 1,-27 1,-27 -2,-27 -5,-24 -5,-21 -5,-21 -5,21 -5,21 -5,24 -2,27 1,27 1,27 7,27 7,27 10,27 13,24 13,21 13,21 13,-21 13,-21 13,-24 10,-27 7,-27"/>
<text text-anchor="middle" x="4" y="2.2" font-family="Helvetica,sans-Serif" font-size="9.00">layer.js</text>
</a>
</g>
</g>
<!-- src/sharedJS/utils/dirsMap.js -->
<g id="node28" class="node">
<title>src/sharedJS/utils/dirsMap.js</title>
<g id="a_node28"><a xlink:href="src/sharedJS/utils/dirsMap.js" xlink:title="dirsMap.js">
<path fill="#ffffcc" stroke="black" d="M3,-31C3,-31 -3,-31 -3,-31 -6,-31 -9,-28 -9,-25 -9,-25 -9,25 -9,25 -9,28 -6,31 -3,31 -3,31 3,31 3,31 6,31 9,28 9,25 9,25 9,-25 9,-25 9,-28 6,-31 3,-31"/>
<text text-anchor="middle" x="0" y="2.2" font-family="Helvetica,sans-Serif" font-size="9.00">dirsMap.js</text>
</a>
</g>
</g>
<!-- src/sharedJS/utils/channels.js -->
<g id="node33" class="node">
<title>src/sharedJS/utils/channels.js</title>
<g id="a_node33"><a xlink:href="src/sharedJS/utils/channels.js" xlink:title="channels.js">
<path fill="#ccffcc" stroke="black" d="M3,-33.5C3,-33.5 -3,-33.5 -3,-33.5 -6,-33.5 -9,-30.5 -9,-27.5 -9,-27.5 -9,27.5 -9,27.5 -9,30.5 -6,33.5 -3,33.5 -3,33.5 3,33.5 3,33.5 6,33.5 9,30.5 9,27.5 9,27.5 9,-27.5 9,-27.5 9,-30.5 6,-33.5 3,-33.5"/>
<text text-anchor="middle" x="0" y="2.2" font-family="Helvetica,sans-Serif" font-size="9.00">channels.js</text>
</a>
</g>
</g>
<!-- src/sharedJS/utils/utils.js -->
<g id="node34" class="node">
<title>src/sharedJS/utils/utils.js</title>
<g id="a_node34"><a xlink:href="src/sharedJS/utils/utils.js" xlink:title="utils.js">
<path fill="#ffffcc" stroke="black" d="M3,-27C3,-27 -3,-27 -3,-27 -6,-27 -9,-24 -9,-21 -9,-21 -9,21 -9,21 -9,24 -6,27 -3,27 -3,27 3,27 3,27 6,27 9,24 9,21 9,21 9,-21 9,-21 9,-24 6,-27 3,-27"/>
<text text-anchor="middle" x="0" y="2.2" font-family="Helvetica,sans-Serif" font-size="9.00">utils.js</text>
</a>
</g>
</g>
</g>
</svg>
